<?xml version="1.0" encoding="utf-8"?>
<!-- Generator: Adobe Illustrator 16.0.0, SVG Export Plug-In . SVG Version: 6.00 Build 0)  -->
<!DOCTYPE svg PUBLIC "-//W3C//DTD SVG 1.1//EN" "http://www.w3.org/Graphics/SVG/1.1/DTD/svg11.dtd" [
	<!ENTITY ns_extend "http://ns.adobe.com/Extensibility/1.0/">
	<!ENTITY ns_ai "http://ns.adobe.com/AdobeIllustrator/10.0/">
	<!ENTITY ns_graphs "http://ns.adobe.com/Graphs/1.0/">
	<!ENTITY ns_vars "http://ns.adobe.com/Variables/1.0/">
	<!ENTITY ns_imrep "http://ns.adobe.com/ImageReplacement/1.0/">
	<!ENTITY ns_sfw "http://ns.adobe.com/SaveForWeb/1.0/">
	<!ENTITY ns_custom "http://ns.adobe.com/GenericCustomNamespace/1.0/">
	<!ENTITY ns_adobe_xpath "http://ns.adobe.com/XPath/1.0/">
]>
<svg version="1.1" id="Layer_1" xmlns:x="&ns_extend;" xmlns:i="&ns_ai;" xmlns:graph="&ns_graphs;"
	 xmlns="http://www.w3.org/2000/svg" xmlns:xlink="http://www.w3.org/1999/xlink" x="0px" y="0px" width="400px" height="300px"
	 viewBox="0 0 400 300" enable-background="new 0 0 400 300" xml:space="preserve">
<metadata>
	<sfw  xmlns="&ns_sfw;">
		<slices></slices>
		<sliceSourceBounds  x="334.134" y="130.713" width="164.449" height="236.54" bottomLeftOrigin="true"></sliceSourceBounds>
	</sfw>
</metadata>
<ellipse opacity="0.1" fill="#010101" enable-background="new    " cx="216.859" cy="243.654" rx="76.109" ry="26.133"/>
<g>
	<g>
		<g>
			<path fill="#E8AF72" d="M154.232,127.545c0,0-1.514-3.703-5.371-5.587c-2.835-1.385-4.165-1.261-4.165-1.261
				s-3.689-3.021-5.766-0.577c-1.181,1.39-0.205,2.785-0.205,2.785s-1.987,0.307-2.04,2.132c-0.027,0.925,0.654,1.365,0.654,1.365
				s-1.457,0.115-1.871,1.81c-0.416,1.695,0.845,2.083,0.845,2.083s-1.924,0.186-1.654,2.348c0.268,2.135,7.486,5.041,13.07,4.163
				c4.067-0.641,4.754-2.787,4.754-2.787L154.232,127.545z"/>
			
				<line fill="none" stroke="#B38758" stroke-linecap="round" stroke-linejoin="round" stroke-miterlimit="10" x1="138.728" y1="122.904" x2="140.817" y2="123.655"/>
			
				<line fill="none" stroke="#B38758" stroke-linecap="round" stroke-linejoin="round" stroke-miterlimit="10" x1="137.34" y1="126.4" x2="139.566" y2="127.015"/>
			<path fill="none" stroke="#B38758" stroke-linecap="round" stroke-linejoin="round" stroke-miterlimit="10" d="M136.315,130.294
				c0,0,6.678,0.442,8.291,1.355c1.609,0.916,0.952,2.629-0.298,3.159c-1.246,0.531-3.552,0.166-3.552,0.166"/>
			<path fill="none" stroke="#B38758" stroke-linecap="round" stroke-linejoin="round" stroke-miterlimit="10" d="M147.698,127.338
				c0,0-2.682-0.457-2.905-1.669c0,0-1.018,4.151-2.725,4.286c-1.71,0.131-3.168-1.9-2.47-3.925
				c0.694-2.024,2.852-4.441,5.098-4.809"/>
			<path fill="none" stroke="#B38758" stroke-linecap="round" stroke-linejoin="round" stroke-miterlimit="10" d="M144.965,131.894
				c0,0,2.344-2.475-1.263-3.39"/>
			<path fill="none" stroke="#B38758" stroke-linecap="round" stroke-linejoin="round" stroke-miterlimit="10" d="M145.193,129.186
				c0,0,1.868-1.365-0.399-3.517"/>
		</g>
		<path fill="#E8AF72" d="M190.9,131.894c0.947-3.827-0.282-7.369-0.282-7.369s1.894-6.122,2.406-11.737
			c-0.06-0.076-0.106-0.171-0.124-0.297c-0.189-1.35-0.604-2.615-0.785-3.921c-5.585,8.386-9.183,24.074-12.444,25.705
			c-4.187,2.093-25.719-6.878-25.719-6.878l-2.194,7.444c0,0,23.129,8.404,29.925,9.302c6.796,0.896,9.353-5.084,9.353-5.084
			c0.208,0.208,0.418,0.392,0.626,0.576C189.932,137.581,190.411,133.881,190.9,131.894z"/>
	</g>
	<g>
		<path fill="#337981" d="M190.397,112.525c-1.104,3.758-0.095,12.418-0.095,12.418s1.23,3.543,0.284,7.37
			c-0.492,1.987-0.971,5.686,0.764,7.743c-0.209-0.186-0.419-0.368-0.628-0.576c4.785,4.784,10.019,3.588,10.019,3.588
			c5.232,4.784,12.625-0.298,12.625-0.298c4.398,3.29,17.558,9.646,17.558,9.646c-4.769,2.578-14.162,7.9-14.162,15.473
			c0,14.588,34.372,22.73,34.372,22.73l3.59-5.383c-14.355-4.488-21.156-18.242-21.156-18.242
			c5.764,0.895,34.69-3.408,35.577-14.059c1.076-12.858-10.918-16.402-18.607-20.036c-10.766-5.084-9.879-12.276-19.389-21.988
			c-7.567-7.727-22.54-9.1-22.54-9.1s-2.704-0.923-11.515,2.276C197.093,104.088,192.132,106.619,190.397,112.525z"/>
		<path fill="#5E5E5E" d="M288.947,233.277c-0.954,0.994-2.528,1.023-3.521,0.07l0,0c-0.992-0.953-1.023-2.523-0.07-3.518
			l7.921-8.24c0.951-0.99,2.528-1.023,3.52-0.07l0,0c0.991,0.953,1.023,2.527,0.069,3.521L288.947,233.277z"/>
		<path fill="#5E5E5E" d="M292.492,227.516c0.323,0.326,0.323,0.846,0,1.176l0,0c-0.324,0.322-0.848,0.322-1.175,0l-12.725-12.732
			c-0.325-0.32-0.325-0.848,0-1.172l0,0c0.324-0.322,0.85-0.322,1.172,0L292.492,227.516z"/>
		<path fill="#143134" d="M250.591,159.408c0,0,8.664,23.066,11.982,25.828c3.32,2.76,29.498,19.721,29.498,19.721l-2.21,7.742
			l-24.278-11.691l-19.491-17.436c0,0-7.116-7.797-10.62-20.584C231.971,150.201,250.591,159.408,250.591,159.408z"/>
		<polygon fill="#C4C4C4" points="214.611,218.35 200.21,218.35 165.979,152.197 180.382,152.197 		"/>
		<path fill="#4B4B4B" d="M144.464,134.949c-1.124,0.376-2.442-0.006-3.672-0.447l-0.669,1.607
			c-0.408,0.981,0.055,2.111,1.039,2.521c0.983,0.41,2.111-0.056,2.521-1.036l1.17-2.806
			C144.723,134.844,144.606,134.905,144.464,134.949z"/>
		<path fill="#4B4B4B" d="M153.604,108.766c-0.981-0.409-2.111,0.058-2.519,1.039l-4.842,11.619
			c0.042,0.031,0.083,0.063,0.121,0.095c1.137,0.386,2.319,0.812,3.466,1.319l4.813-11.549
			C155.052,110.307,154.589,109.176,153.604,108.766z"/>
		<path fill="#4B4B4B" d="M152.582,142.706c0.981,0.41,2.111-0.055,2.521-1.039l0,0c0.41-0.983-0.055-2.112-1.039-2.52
			l-11.162-4.069c-0.983-0.41-2.112,0.057-2.522,1.042l0,0c-0.409,0.98,0.057,2.111,1.038,2.52L152.582,142.706z"/>
		<path fill="#5E5E5E" d="M176.812,155.402c1.835,1.834,1.835,4.805,0,6.637l0,0c-1.833,1.834-4.802,1.834-6.636,0l-16.838-16.697
			c-1.835-1.831-1.835-4.801,0-6.635l0,0c1.833-1.835,4.804-1.834,6.637,0L176.812,155.402z"/>
		<path fill="#337981" d="M290.957,203.898c0,0,8.825,1.92,8.082,5.916c-0.74,4-7.403,17.764-12.288,17.619
			c-4.886-0.148-9.029-3.85-6.363-7.998c2.664-4.143,7.688-11.215,7.688-11.215L290.957,203.898z"/>
		<path fill="#24575D" d="M295.949,205.693c-3.229,12.17-10.076,17.906-13.99,20.281c1.294,0.867,2.994,1.404,4.791,1.461
			c4.885,0.145,11.548-13.619,12.288-17.621C299.369,208.033,297.796,206.664,295.949,205.693z"/>
		<polygon fill="#FFFFFF" points="276.216,217.309 259.071,217.309 251.371,161.447 270.502,161.447 		"/>
		<path fill="#FFFFFF" d="M293.588,216.564c0,13.211-10.71,23.922-23.921,23.922H222.52c-13.212,0-23.922-10.711-23.922-23.922l0,0
			c0-13.211,10.71-23.922,23.922-23.922h47.147C282.878,192.643,293.588,203.352,293.588,216.564L293.588,216.564z"/>
		<path fill="none" stroke="#5E5E5E" stroke-miterlimit="10" d="M278.593,215.668c0,1.973-1.604,3.578-3.578,3.578h-60.405
			c-1.976,0-3.578-1.605-3.578-3.578l0,0c0-1.975,1.603-3.578,3.578-3.578h60.405C276.989,212.09,278.593,213.693,278.593,215.668
			L278.593,215.668z"/>
		<circle fill="#C4C4C4" cx="278.347" cy="215.426" r="12.763"/>
		<circle fill="#908F8F" cx="278.348" cy="215.426" r="5.204"/>
		<path fill="#5E5E5E" d="M276.88,160.271c0,2.869-2.324,5.195-5.194,5.195h-20.397c-2.869,0-5.196-2.326-5.196-5.195l0,0
			c0-2.869,2.326-5.195,5.196-5.195h20.397C274.555,155.076,276.88,157.402,276.88,160.271L276.88,160.271z"/>
		<path fill="#FED1A2" d="M215.9,127.846c0,0-2.734-8.531-0.709-15.028c2.029-6.496,8.643-5.389,9.945-4.837
			c1.304,0.553,7.019,1.745,11.258,13.134C240.635,132.501,233.207,148.715,215.9,127.846z"/>
		<path fill="#FED1A2" d="M197.431,103.97c-4.32,5.942-4.148,18.576,0.615,19.729c5.53,1.336,10.354-2.813,13.5-10.371
			c2.086-5.008,1.224-8.782,0.128-11.078c-1.875-0.328-3.067-0.438-3.067-0.438S205.969,100.917,197.431,103.97z"/>
		<path fill="#5E5E5E" d="M167.042,157.674c0.983,0.408,2.112-0.053,2.521-1.037l0,0c0.409-0.982-0.056-2.113-1.038-2.523
			l-11.164-4.066c-0.982-0.408-2.112,0.056-2.523,1.039l0,0c-0.408,0.984,0.058,2.113,1.039,2.521L167.042,157.674z"/>
		<path fill="#5E5E5E" d="M169.922,126.483c0.41-0.983-0.055-2.112-1.039-2.521l0,0c-0.982-0.409-2.111,0.054-2.521,1.039
			L155.4,151.305c-0.408,0.98,0.055,2.109,1.04,2.521l0,0c0.984,0.408,2.112-0.059,2.521-1.039L169.922,126.483z"/>
		<path fill="#FED1A2" d="M170.02,148.644c0,0,9.797,3.592,23.43,1.561c13.631-2.029,15.302-5.165,16.494-7.746
			c1.193-2.58,6.357-10.052,6.816-21.342c0.46-11.29,5.521-11.693,9.394-11.473c3.87,0.218,10.242,5.977,4.342,18.845
			c-5.898,12.865-11.247,25.954-25.441,29.274c-14.196,3.316-39.979-2.686-39.979-2.686L170.02,148.644z"/>
		<g>
			<path fill="#24575D" d="M190.302,124.942c0,0,0.129,0.235,0.301,0.679c0.153,0.443,0.393,1.084,0.541,1.886
				c0.075,0.402,0.163,0.838,0.186,1.309c0.05,0.47,0.076,0.967,0.037,1.482c0,0.519-0.067,1.052-0.169,1.589
				c-0.085,0.553-0.214,1.049-0.295,1.549c-0.374,2.021-0.412,4.109,0.117,5.523c0.053,0.184,0.14,0.339,0.212,0.495
				c0.066,0.161,0.146,0.302,0.236,0.429c0.155,0.273,0.352,0.462,0.503,0.633c0.33,0.311,0.546,0.483,0.546,0.483
				s-0.062-0.026-0.176-0.076c-0.112-0.057-0.301-0.106-0.5-0.241c-0.195-0.138-0.454-0.293-0.686-0.545
				c-0.257-0.228-0.497-0.544-0.701-0.915c-0.214-0.368-0.4-0.795-0.52-1.262c-0.142-0.465-0.225-0.968-0.272-1.488
				c-0.106-1.042-0.006-2.148,0.169-3.23c0.103-0.55,0.255-1.08,0.337-1.564c0.098-0.49,0.221-0.972,0.246-1.454
				c0.063-0.477,0.104-0.942,0.106-1.388c0.029-0.445,0.015-0.866,0.006-1.26c-0.02-0.784-0.065-1.446-0.127-1.907
				C190.342,125.213,190.302,124.942,190.302,124.942z"/>
		</g>
		<g>
			<path fill="#24575D" d="M200.74,143.067c0,0-0.978-0.493-1.986-1.801c-0.495-0.651-0.966-1.517-1.242-2.527
				c-0.131-0.506-0.234-1.042-0.261-1.592c-0.029-0.553,0.005-1.109,0.069-1.663c0.106-0.523,0.21-1.047,0.314-1.563
				c0.118-0.514,0.304-1.025,0.452-1.511c0.344-0.947,0.763-1.788,1.027-2.482c0.083-0.177,0.091-0.345,0.146-0.509
				c0.049-0.163,0.098-0.321,0.092-0.472c0.008-0.299,0.057-0.577-0.006-0.795c-0.069-0.446-0.095-0.718-0.095-0.718
				s0.116,0.233,0.302,0.671c0.115,0.213,0.136,0.504,0.205,0.841c0.068,0.334,0.017,0.73-0.041,1.142
				c-0.083,0.403-0.185,0.839-0.325,1.264c-0.125,0.429-0.256,0.88-0.393,1.347c-0.108,0.462-0.221,0.937-0.334,1.423
				c-0.089,0.501-0.177,1.01-0.269,1.519c-0.067,0.49-0.11,0.979-0.097,1.465c0.021,0.482,0.053,0.959,0.145,1.415
				c0.172,0.912,0.491,1.735,0.835,2.415c0.352,0.675,0.708,1.224,0.998,1.576C200.558,142.872,200.74,143.067,200.74,143.067z"/>
		</g>
		<path fill="#24575D" d="M255.994,135.36c-7.218,10.012-19.063,15.04-25.071,17.056l0,0c-4.769,2.578-14.162,7.9-14.162,15.473
			c0,14.588,34.372,22.73,34.372,22.73l3.59-5.383c-14.355-4.488-21.156-18.242-21.156-18.242
			c5.764,0.895,34.69-3.408,35.577-14.059C269.983,142.877,262.832,138.519,255.994,135.36z"/>
		<path fill="#337981" d="M254.721,185.236c0,0,10.989,2.391,10.064,7.369c-0.92,4.977-9.216,22.121-15.302,21.938
			c-6.085-0.184-11.246-4.791-7.926-9.955c3.317-5.162,9.576-13.969,9.576-13.969L254.721,185.236z"/>
		<path fill="#24575D" d="M260.937,187.469c-4.019,15.16-12.547,22.301-17.421,25.262c1.613,1.074,3.728,1.744,5.97,1.813
			c6.083,0.184,14.379-16.961,15.302-21.938C265.197,190.385,263.236,188.678,260.937,187.469z"/>
		<path fill="#5E5E5E" d="M264.271,207.24c-0.535,1.268-1.996,1.857-3.262,1.324l0,0c-1.266-0.539-1.861-1.998-1.323-3.264
			l4.451-10.529c0.535-1.268,1.995-1.857,3.262-1.322l0,0c1.267,0.535,1.856,1.994,1.322,3.26L264.271,207.24z"/>
		<path fill="#5E5E5E" d="M278.349,214.252c0.324,0.324,0.324,0.85,0,1.174l0,0c-0.324,0.326-0.85,0.326-1.172,0l-12.729-12.727
			c-0.323-0.326-0.323-0.852,0-1.174l0,0c0.324-0.326,0.849-0.326,1.174,0L278.349,214.252z"/>
		<path fill="#5E5E5E" d="M291.109,244.92c0,2.447-1.984,4.432-4.433,4.432H205.51c-2.45,0-4.437-1.984-4.437-4.432l0,0
			c0-2.451,1.985-4.434,4.437-4.434h81.167C289.125,240.486,291.109,242.469,291.109,244.92L291.109,244.92z"/>
		<path fill="#301912" d="M212.885,54.695c-5.98,3.779-11.975,7.543-18.145,10.94c4.24,26.387,1.965,36.771,1.965,36.771
			l17.896-1.696c0,0,2.99-18.543-1.494-44.86C213.038,55.461,212.965,55.076,212.885,54.695z"/>
		<path fill="#ECBF8E" d="M209.313,103.173c1.431,2.764,0.35,6.164-2.412,7.596l0,0c-2.766,1.431-6.165,0.352-7.597-2.413
			l-7.138-13.786c-1.43-2.766-0.349-6.167,2.414-7.598l0,0c2.765-1.429,6.167-0.35,7.595,2.414L209.313,103.173z"/>
		<g>
			<circle fill="#FED1A2" cx="190.397" cy="72.854" r="29.554"/>
			<path fill="#E8AF72" d="M178.74,87.416c-0.614,1.642-2.44,2.475-4.082,1.862c-1.642-0.612-2.474-2.439-1.863-4.081
				c0.612-1.642,5.013-6.913,6.73-10.337C180.197,77.465,179.353,85.775,178.74,87.416z"/>
			<path fill="none" stroke="#9F4B2F" stroke-width="2" stroke-linecap="round" stroke-linejoin="round" stroke-miterlimit="10" d="
				M165.925,72.874c1.081-2.757,4.443-2.757,5.524,0"/>
			<path fill="none" stroke="#9F4B2F" stroke-width="2" stroke-linecap="round" stroke-linejoin="round" stroke-miterlimit="10" d="
				M190.968,72.874c1.081-2.757,4.445-2.757,5.526,0"/>
			<path fill="none" stroke="#9E2F2F" stroke-linecap="round" stroke-linejoin="round" stroke-miterlimit="10" d="M195.511,90.201
				c-0.525,5.09-6.125,6.644-9.198,2.549"/>
			<path fill="#FED1A2" d="M213.86,67.715c-0.873,0.221-1.643,0.637-2.284,1.186l2.509,9.922c0.826,0.176,1.699,0.176,2.576-0.046
				c3.054-0.774,4.901-3.876,4.131-6.932C220.019,68.791,216.916,66.942,213.86,67.715z"/>
			<path fill="#572A1A" d="M207.367,64.526c0,0-24.561-6.256-46.524,1.657c0,0-1.896-17.62,11.75-26.78
				c15.685-10.526,48.962-9.087,53.314,16.449c4.485,26.316,1.496,44.86,1.496,44.86l-17.898,1.696
				C209.506,102.407,211.853,91.741,207.367,64.526z"/>
			<circle fill="#FED1A2" cx="203.181" cy="82.169" r="5.186"/>
		</g>
		<path fill="#FED1A2" d="M170.021,148.644c0,0,2.83-6.2,0.039-9.322c-2.792-3.126-5.572-1.178-5.572-1.178
			s-5.344-4.827-8.286-2.126c-2.944,2.703-6.003,10.466-3.365,13.634c2.635,3.166,12.235,5.424,12.235,5.424L170.021,148.644z"/>
	</g>
</g>
</svg>
