<?xml version="1.0" encoding="utf-8"?>
<!-- Generator: Adobe Illustrator 16.0.0, SVG Export Plug-In . SVG Version: 6.00 Build 0)  -->
<!DOCTYPE svg PUBLIC "-//W3C//DTD SVG 1.1//EN" "http://www.w3.org/Graphics/SVG/1.1/DTD/svg11.dtd" [
	<!ENTITY ns_extend "http://ns.adobe.com/Extensibility/1.0/">
	<!ENTITY ns_ai "http://ns.adobe.com/AdobeIllustrator/10.0/">
	<!ENTITY ns_graphs "http://ns.adobe.com/Graphs/1.0/">
	<!ENTITY ns_vars "http://ns.adobe.com/Variables/1.0/">
	<!ENTITY ns_imrep "http://ns.adobe.com/ImageReplacement/1.0/">
	<!ENTITY ns_sfw "http://ns.adobe.com/SaveForWeb/1.0/">
	<!ENTITY ns_custom "http://ns.adobe.com/GenericCustomNamespace/1.0/">
	<!ENTITY ns_adobe_xpath "http://ns.adobe.com/XPath/1.0/">
]>
<svg version="1.1" id="Layer_1" xmlns:x="&ns_extend;" xmlns:i="&ns_ai;" xmlns:graph="&ns_graphs;"
	 xmlns="http://www.w3.org/2000/svg" xmlns:xlink="http://www.w3.org/1999/xlink" x="0px" y="0px" width="400px" height="300px"
	 viewBox="0 0 400 300" enable-background="new 0 0 400 300" xml:space="preserve">
<metadata>
	<sfw  xmlns="&ns_sfw;">
		<slices></slices>
		<sliceSourceBounds  x="326.066" y="136.925" width="158.596" height="243.897" bottomLeftOrigin="true"></sliceSourceBounds>
	</sfw>
</metadata>
<ellipse opacity="0.1" fill="#010101" enable-background="new    " cx="205.863" cy="241.011" rx="65.714" ry="22.564"/>
<g>
	<path fill="#FFE3C5" d="M189.281,111.826c8.15-4.639,21.465-6.021,33.898-4.973c12.436,1.047,45.418,10.339,44.108,24.737
		c-1.31,14.396-5.235,21.988-5.235,21.988l-9.424-4.188c0,0,5.236-14.291,3.143-19.252c-2.094-4.961-23.075-9.021-26.197-7.972
		c-3.121,1.046,0,43.189,0,43.189l-33.094,5.105c0,0-6.413-33.639-8.114-40.182c0,0-10.274,13.221-14.234,17.932
		c-3.959,4.711-6.759,6.807-11.511,4.711c-4.752-2.094-21.815-22.738-21.815-22.738l9.472-3.7c0,0,11.993,13.222,14.177,13.089
		C166.638,139.443,180.773,116.669,189.281,111.826z"/>
	<path fill="#FFE3C5" d="M252.628,149.39c0,0-7.853,0.654-9.422,5.236c-1.572,4.58,1.963,6.281,1.963,6.281
		s-1.842,8.114,2.547,9.555c4.39,1.44,13.943,0.131,15.646-4.317c1.701-4.451-1.31-12.566-1.31-12.566L252.628,149.39z"/>
	<g>
		<path fill="#FFE3C5" d="M150.32,126.505c0,0,2.454-4.732,1.04-10.276c-1.04-4.076-2.31-5.317-2.31-5.317s-0.114-6.351-4.389-6.353
			c-2.425-0.002-3.002,2.194-3.002,2.194s-2.026-1.754-3.928-0.23c-0.964,0.772-0.821,1.84-0.821,1.84s-1.373-1.378-3.452-0.339
			s-1.386,2.657-1.386,2.657s-1.848-1.795-3.812,0.346c-1.939,2.113,1.34,11.951,7.046,16.864c4.158,3.581,6.931,2.425,6.931,2.425
			L150.32,126.505z"/>
		<path fill="none" stroke="#CDA882" stroke-linecap="round" stroke-linejoin="round" stroke-miterlimit="10" d="M150.132,126.594
			c0,0-0.813,0.708-3.002,1.416"/>
		
			<line fill="none" stroke="#CDA882" stroke-linecap="round" stroke-linejoin="round" stroke-miterlimit="10" x1="141.658" y1="106.753" x2="142.697" y2="109.525"/>
		
			<line fill="none" stroke="#CDA882" stroke-linecap="round" stroke-linejoin="round" stroke-miterlimit="10" x1="136.909" y1="108.363" x2="138.103" y2="110.946"/>
		<path fill="none" stroke="#CDA882" stroke-linecap="round" stroke-linejoin="round" stroke-miterlimit="10" d="M132.071,110.682
			c0,0,5.313,7.161,5.775,9.586c0.461,2.426-1.849,3.233-3.465,2.426c-1.617-0.809-3.234-3.466-3.234-3.466"/>
		<path fill="none" stroke="#CDA882" stroke-linecap="round" stroke-linejoin="round" stroke-miterlimit="10" d="M144.892,119.69
			c0,0-1.848-3.119-0.809-4.389c0,0-5.095,2.549-6.707,0.929c-1.61-1.622-0.801-4.856,1.855-5.895
			c2.656-1.041,7.508-1.386,9.817,0.578"/>
		<path fill="none" stroke="#CDA882" stroke-linecap="round" stroke-linejoin="round" stroke-miterlimit="10" d="M137.906,120.846
			c0,0,4.54,0.247,2.355-4.209"/>
		<path fill="none" stroke="#CDA882" stroke-linecap="round" stroke-linejoin="round" stroke-miterlimit="10" d="M140.854,118.742
			c0,0,2.999,0.717,3.23-3.441"/>
	</g>
	<path fill="#6B3320" d="M194,176.869c0,0,11.84,32.326,26.5,40.031l12.592-21.613c0,0-12.592-17.102-13.908-21.049
		C217.87,170.291,194,176.869,194,176.869z"/>
	<path fill="#9F4B2F" d="M196.479,170.462c0,0-0.223,1.815-3.23,2.515c-3.007,0.696-15.036,3.893-18.795,15.168l15.223,18.606
		c0,0,5.263-3.758,16.163-10.147c10.576-6.201,16.54-7.144,21.238-11.652c4.697-4.51,2.494-19.594,2.494-19.594L196.479,170.462z"/>
	<path fill="#FFE3C5" d="M175.551,189.486l-18.2,37.563c0,0,3.25,8.455,6.202,4.324c0.94-1.316,19.434-32.799,19.434-32.799
		L175.551,189.486z"/>
	<path fill="#FED1A2" d="M227.412,205.035c0,0,1.546,2.094,4.365,1.717c2.818-0.375,13.719-7.939,22.74-20.697l5.826,3.432
		c0,0-17.717,24.906-28.191,24.972c-6.014,0.037-8.635-2.733-8.635-2.733L227.412,205.035z"/>
	<path fill="#70C7DA" d="M162.684,232.24c0,0,0.118,7.967-2.701,10.596c-2.819,2.633-22.177,1.432-30.07-5.297
		c-7.894-6.73-0.186-18.008,6.297-15.939c6.483,2.066,21.142,5.449,21.142,5.449S159.748,233.859,162.684,232.24z"/>
	<path fill="#ECE8E0" d="M159.983,242.835c0.969-0.903,1.592-2.438,1.99-4.063c-22.586,0.076-31.841-5.556-35.362-8.945
		c-0.253,2.627,0.626,5.43,3.301,7.713C137.806,244.268,157.164,245.468,159.983,242.835z"/>
	<path fill="#ECE8E0" d="M157.352,227.048c0,0-0.751,4.513-2.631,4.513c-1.88,0-11.512-2.256-11.512-4.513
		c0-1.623,0.799-4.133,2.866-3.944c2.067,0.188,10.521,3.771,10.521,3.771"/>
	<path fill="#ECE8E0" d="M128.889,236.535c2.545-0.432,5.941-1.893,7.32-6.479c0.929-3.089,0.509-6.07-0.331-8.541
		C129.784,220,122.877,229.871,128.889,236.535z"/>
	<path fill="#70C7DA" d="M254.518,186.055c0,0,1.504-6.556,6.767-10.125c5.262-3.572,26.124,10.524,23.681,18.229
		c-2.441,7.705-11.652,8.131-24.619-4.675L254.518,186.055z"/>
	<polygon fill="#ECE8E0" points="260.344,189.486 271.245,193.783 267.326,197.354 	"/>
	<path fill="#ECE8E0" d="M261.284,175.93c-1.124,0.764-2.076,1.661-2.88,2.604c6.384,3.09,19.133,9.469,26.74,14.666
		C285.75,185.348,266.334,172.501,261.284,175.93z"/>
	<path fill="#ECE8E0" d="M276.568,199.509c4.246,0.546,7.17-1.487,8.396-5.35c0.63-1.986-0.292-4.398-2.093-6.822
		C279.648,189.986,277.307,194.365,276.568,199.509z"/>
	<g>
		<path fill="#70C7DA" d="M228.195,132.183c-4.258-5.189-7.154-14.626-7.325-25.492c-1.798-0.105-3.604-0.162-5.405-0.163
			c0.059,0.664,0.092,1.338,0.092,2.025c0,8.521-4.636,15.427-10.354,15.427c-5.53,0-10.046-6.457-10.339-14.584
			c-1.933,0.643-3.714,1.403-5.309,2.284c0.613,3.369,0.952,7.017,0.952,10.829c0,4.251-0.417,8.301-1.172,11.982
			c2.413,11.148,7.146,35.971,7.146,35.971l33.094-5.104C229.573,165.357,228.063,144.949,228.195,132.183z"/>
	</g>
	<path fill="#FED1A2" d="M210.855,108.754c0,3.361-2.727,6.087-6.088,6.087l0,0c-3.363,0-6.089-2.726-6.089-6.087V88.993
		c0-3.363,2.726-6.089,6.089-6.089l0,0c3.361,0,6.088,2.726,6.088,6.089V108.754z"/>
	<g>
		<circle fill="#FFE3C5" cx="199.885" cy="71.746" r="30.479"/>
		<path fill="#FCBF7D" d="M188.062,83.247c-0.593,2.153-2.819,3.418-4.972,2.826c-2.152-0.593-3.417-2.82-2.824-4.973
			c0.593-2.151,5.586-9.337,7.38-13.878C188.79,70.451,188.654,81.095,188.062,83.247z"/>
		<path fill="none" stroke="#9F4B2F" stroke-width="2" stroke-linecap="round" stroke-linejoin="round" stroke-miterlimit="10" d="
			M173.451,69.326c1.115-2.844,4.583-2.844,5.698,0"/>
		<path fill="none" stroke="#9F4B2F" stroke-width="2" stroke-linecap="round" stroke-linejoin="round" stroke-miterlimit="10" d="
			M198.595,68.26c1.115-2.844,4.583-2.844,5.698,0"/>
		<path fill="none" stroke="#9F4B2F" stroke-linecap="round" stroke-linejoin="round" stroke-miterlimit="10" d="M204.646,84.751
			c2.112,4.837-2.125,9.074-6.961,6.962"/>
		<path fill="#9F4B2F" d="M227.132,85.414c0,0,5.087-3.618,6.067-12.439c0.98-8.821,0.238-24.015-6.067-30.509
			c-6.307-6.492-19.397-7.105-27.247-7.84c-7.851-0.735-25.003-7.475-25.494-14.948c0,0-8.086,6.373-6.493,22.667
			c1.593,16.294,29.159,15.923,47.659,6.369l11.762,24.26C227.318,72.975,228.661,78.25,227.132,85.414z"/>
		<circle fill="#FED1A2" cx="225.477" cy="70.751" r="5.883"/>
		<path fill="#9F4B2F" d="M215.559,48.715c0,0,1.836,8.045,1.103,16.152c-0.735,8.108-2.099,13.866,2.933,14.478
			c5.03,0.613,6.9-6.832,6.518-14.442C225.727,57.292,224.378,53.248,215.559,48.715z"/>
	</g>
</g>
</svg>
