<?xml version="1.0" encoding="utf-8"?>
<!-- Generator: Adobe Illustrator 16.0.0, SVG Export Plug-In . SVG Version: 6.00 Build 0)  -->
<!DOCTYPE svg PUBLIC "-//W3C//DTD SVG 1.1//EN" "http://www.w3.org/Graphics/SVG/1.1/DTD/svg11.dtd" [
	<!ENTITY ns_extend "http://ns.adobe.com/Extensibility/1.0/">
	<!ENTITY ns_ai "http://ns.adobe.com/AdobeIllustrator/10.0/">
	<!ENTITY ns_graphs "http://ns.adobe.com/Graphs/1.0/">
	<!ENTITY ns_vars "http://ns.adobe.com/Variables/1.0/">
	<!ENTITY ns_imrep "http://ns.adobe.com/ImageReplacement/1.0/">
	<!ENTITY ns_sfw "http://ns.adobe.com/SaveForWeb/1.0/">
	<!ENTITY ns_custom "http://ns.adobe.com/GenericCustomNamespace/1.0/">
	<!ENTITY ns_adobe_xpath "http://ns.adobe.com/XPath/1.0/">
]>
<svg version="1.1" id="Layer_1" xmlns:x="&ns_extend;" xmlns:i="&ns_ai;" xmlns:graph="&ns_graphs;"
	 xmlns="http://www.w3.org/2000/svg" xmlns:xlink="http://www.w3.org/1999/xlink" x="0px" y="0px" width="400px" height="300px"
	 viewBox="0 0 400 300" enable-background="new 0 0 400 300" xml:space="preserve">
<metadata>
	<sfw  xmlns="&ns_sfw;">
		<slices></slices>
		<sliceSourceBounds  x="331.21" y="133.088" width="141.76" height="234.824" bottomLeftOrigin="true"></sliceSourceBounds>
	</sfw>
</metadata>
<ellipse opacity="0.1" enable-background="new    " cx="202.59" cy="245.433" rx="64.016" ry="21.979"/>
<g>
	<path fill="#FFE3C4" d="M193.126,82.244c0,0-11.245,18.221-30.904,7.017c-11.038-6.291-7.824-24.823-7.824-24.823l-6.229,0.146
		c0,0-2.955,16.557,5.639,28.319c6.511,8.911,29.197,9.904,29.197,9.904v52.981h19.359h0.342h19.36v-52.981
		c0,0,22.686-0.994,29.198-9.904c8.593-11.763,5.637-28.319,5.637-28.319l-6.229-0.146c0,0,3.216,18.532-7.822,24.823
		c-19.66,11.204-30.905-7.017-30.905-7.017H193.126z"/>
	<path fill="#FF7800" d="M219.879,108.11c0-6.125,0.595-11.972,1.673-17.325c-1.291-0.644-2.463-1.384-3.5-2.156
		c0.005,0.188,0.014,0.374,0.014,0.563c0,9.102-7.084,16.481-15.82,16.481c-8.737,0-15.82-7.379-15.82-16.481
		c0-0.045,0.003-0.089,0.003-0.133c-0.741,0.517-1.542,1.013-2.4,1.466c1.104,5.409,1.714,11.327,1.714,17.531
		c0,7.914-0.991,15.363-2.735,21.881v25.851h19.359h0.342h19.359v-27.981C220.664,121.827,219.879,115.154,219.879,108.11z"/>
	<g>
		<g>
			<path fill="#FFE3C4" d="M154.455,64.584c0,0,3.612-2.406,4.255-6.23c0.473-2.811,0.027-3.929,0.027-3.929s1.67-3.968-0.979-5.142
				c-1.502-0.667-2.463,0.538-2.463,0.538s-0.775-1.644-2.371-1.22c-0.809,0.214-1.013,0.916-1.013,0.916s-0.473-1.23-2.046-1.158
				c-1.574,0.075-1.587,1.268-1.587,1.268s-0.654-1.619-2.458-0.832c-1.783,0.779-2.62,7.861-0.257,12.385
				c1.485,2.844,2.721,3.403,2.721,3.403H154.455z"/>
			
				<line fill="none" stroke="#CCA781" stroke-linecap="round" stroke-linejoin="round" stroke-miterlimit="10" x1="155.294" y1="49.821" x2="155.178" y2="51.824"/>
			
				<line fill="none" stroke="#CCA781" stroke-linecap="round" stroke-linejoin="round" stroke-miterlimit="10" x1="151.909" y1="49.517" x2="151.948" y2="51.601"/>
			<path fill="none" stroke="#CCA781" stroke-linecap="round" stroke-linejoin="round" stroke-miterlimit="10" d="M148.275,49.627
				c0,0,1.33,5.895,0.951,7.526c-0.379,1.63-2.032,1.498-2.813,0.553c-0.782-0.944-1.055-3.035-1.055-3.035"/>
			<path fill="none" stroke="#CCA781" stroke-linecap="round" stroke-linejoin="round" stroke-miterlimit="10" d="M153.752,58.726
				c0,0-0.291-2.439,0.703-2.942c0,0-3.857,0.184-4.412-1.263c-0.554-1.446,0.834-3.229,2.766-3.146
				c1.932,0.084,5.034,1.201,5.927,3.051"/>
			<path fill="none" stroke="#CCA781" stroke-linecap="round" stroke-linejoin="round" stroke-miterlimit="10" d="M149.105,57.526
				c0,0,2.748,1.396,2.614-1.963"/>
			<path fill="none" stroke="#CCA781" stroke-linecap="round" stroke-linejoin="round" stroke-miterlimit="10" d="M151.508,57.031
				c0,0,1.663,1.267,2.946-1.247"/>
		</g>
		<path fill="#003D52" d="M144.637,52.244h-5.35c-0.977,0-1.77,0.792-1.77,1.77s0.792,1.771,1.77,1.771h6.031L144.637,52.244z"/>
		<path fill="#003D52" d="M164.163,52.244h-4.907l-0.519,1.973l0.187,1.567h5.239c0.977,0,1.77-0.793,1.77-1.771
			C165.932,53.036,165.139,52.244,164.163,52.244z"/>
		<path fill="#0086B3" d="M162.555,62.528c0,2.539,2.058,4.597,4.597,4.597l0,0c2.539,0,4.597-2.058,4.597-4.597v-17.03
			c0-2.539-2.058-4.596-4.597-4.596l0,0c-2.54,0-4.597,2.057-4.597,4.596V62.528z"/>
		<path fill="#0086B3" d="M131.71,62.528c0,2.539,2.058,4.597,4.597,4.597l0,0c2.539,0,4.596-2.058,4.596-4.597v-17.03
			c0-2.539-2.058-4.596-4.596-4.596l0,0c-2.539,0-4.597,2.057-4.597,4.596V62.528z"/>
	</g>
	<g>
		<g>
			<path fill="#FFE3C4" d="M250.725,64.584c0,0-3.61-2.406-4.254-6.23c-0.474-2.811-0.025-3.929-0.025-3.929
				s-1.67-3.968,0.979-5.142c1.503-0.667,2.463,0.538,2.463,0.538s0.774-1.644,2.372-1.22c0.808,0.214,1.012,0.916,1.012,0.916
				s0.473-1.23,2.048-1.158c1.572,0.075,1.586,1.268,1.586,1.268s0.654-1.619,2.458-0.832c1.781,0.779,2.618,7.861,0.257,12.385
				c-1.485,2.844-2.722,3.403-2.722,3.403H250.725z"/>
			
				<line fill="none" stroke="#CCA781" stroke-linecap="round" stroke-linejoin="round" stroke-miterlimit="10" x1="249.885" y1="49.821" x2="250.001" y2="51.824"/>
			
				<line fill="none" stroke="#CCA781" stroke-linecap="round" stroke-linejoin="round" stroke-miterlimit="10" x1="253.271" y1="49.517" x2="253.232" y2="51.601"/>
			<path fill="none" stroke="#CCA781" stroke-linecap="round" stroke-linejoin="round" stroke-miterlimit="10" d="M256.905,49.627
				c0,0-1.329,5.895-0.951,7.526c0.379,1.63,2.033,1.498,2.813,0.553c0.78-0.944,1.055-3.035,1.055-3.035"/>
			<path fill="none" stroke="#CCA781" stroke-linecap="round" stroke-linejoin="round" stroke-miterlimit="10" d="M251.428,58.726
				c0,0,0.291-2.439-0.703-2.942c0,0,3.859,0.184,4.412-1.263c0.554-1.446-0.834-3.229-2.768-3.146
				c-1.93,0.084-5.031,1.201-5.926,3.051"/>
			<path fill="none" stroke="#CCA781" stroke-linecap="round" stroke-linejoin="round" stroke-miterlimit="10" d="M256.076,57.526
				c0,0-2.748,1.396-2.616-1.963"/>
			<path fill="none" stroke="#CCA781" stroke-linecap="round" stroke-linejoin="round" stroke-miterlimit="10" d="M253.672,57.031
				c0,0-1.663,1.267-2.947-1.247"/>
		</g>
		<path fill="#003D52" d="M260.545,52.244h5.349c0.979,0,1.771,0.792,1.771,1.77s-0.791,1.771-1.771,1.771h-6.029L260.545,52.244z"
			/>
		<path fill="#003D52" d="M241.02,52.244h4.905l0.521,1.973l-0.188,1.567h-5.238c-0.977,0-1.771-0.793-1.771-1.771
			S240.042,52.244,241.02,52.244z"/>
		<path fill="#0086B3" d="M242.625,62.528c0,2.539-2.059,4.597-4.597,4.597l0,0c-2.538,0-4.598-2.058-4.598-4.597v-17.03
			c0-2.539,2.06-4.596,4.598-4.596l0,0c2.538,0,4.597,2.057,4.597,4.596V62.528z"/>
		<path fill="#0086B3" d="M273.47,62.528c0,2.539-2.057,4.597-4.595,4.597l0,0c-2.54,0-4.599-2.058-4.599-4.597v-17.03
			c0-2.539,2.059-4.596,4.599-4.596l0,0c2.538,0,4.595,2.057,4.595,4.596V62.528z"/>
	</g>
	<path fill="#9E4A2E" d="M183.034,155.789v28.789h17.674c0.223-8.021,0.957-13.911,1.829-13.911s1.606,5.89,1.829,13.911h17.675
		v-28.789H183.034z"/>
	<path fill="#6B321F" d="M183.034,169.021c4.026-2.71,6.996-7.515,7.952-13.231h-7.952V169.021z"/>
	<path fill="#6B321F" d="M222.04,169.021v-13.231h-7.952C215.044,161.506,218.014,166.311,222.04,169.021z"/>
	<rect x="183.006" y="153.129" fill="#6B321F" width="39.035" height="2.66"/>
	<path fill="#FFE3C4" d="M188.714,184.578c0,0,0.726,32.417,4.476,54.068h4.476c0,0-5.08-39.069-2.903-54.068H188.714z"/>
	<path fill="#EDE9E0" d="M197.607,238.197c0,0,1.474,4.911,0.192,7.034c-1.283,2.125-13.479,4.787-19.549,2.009
		c-6.071-2.778-3.282-11.115,1.095-10.976c4.377,0.14,14.048-0.344,14.048-0.344S196.074,239.717,197.607,238.197z"/>
	<path fill="#9E4A2E" d="M197.799,245.231c0.439-0.729,0.555-1.791,0.516-2.867c-13.97,4.02-20.691,2.162-23.466,0.681
		c0.305,1.673,1.342,3.253,3.4,4.195C184.32,250.019,196.516,247.356,197.799,245.231z"/>
	<path fill="#9E4A2E" d="M193.393,235.921c0,0,0.328,2.923-0.835,3.255c-1.163,0.331-7.523,0.628-7.921-0.769
		c-0.285-1.005-0.232-2.7,1.082-2.947c1.313-0.248,7.176,0.485,7.176,0.485"/>
	<path fill="#9E4A2E" d="M177.439,246.797c1.5-0.712,3.345-2.216,3.393-5.296c0.032-2.076-0.751-3.848-1.706-5.23
		C175.085,236.402,172.545,243.729,177.439,246.797z"/>
	<path fill="#FFE3C4" d="M217.097,184.578c0,0-0.727,32.417-4.477,54.068h-4.477c0,0,5.081-39.069,2.903-54.068H217.097z"/>
	<path fill="#EDE9E0" d="M208.201,238.197c0,0-1.474,4.911-0.191,7.034c1.282,2.125,13.479,4.787,19.549,2.009
		c6.07-2.778,3.281-11.115-1.095-10.976c-4.377,0.14-14.048-0.344-14.048-0.344S209.734,239.717,208.201,238.197z"/>
	<path fill="#9E4A2E" d="M208.01,245.231c-0.439-0.729-0.556-1.791-0.517-2.867c13.97,4.02,20.692,2.162,23.467,0.681
		c-0.305,1.673-1.343,3.253-3.4,4.195C221.489,250.019,209.294,247.356,208.01,245.231z"/>
	<path fill="#9E4A2E" d="M212.416,235.921c0,0-0.327,2.923,0.836,3.255c1.163,0.331,7.523,0.628,7.92-0.769
		c0.287-1.005,0.232-2.7-1.081-2.947c-1.312-0.248-7.177,0.485-7.177,0.485"/>
	<path fill="#9E4A2E" d="M228.369,246.797c-1.501-0.712-3.345-2.216-3.395-5.296c-0.03-2.076,0.753-3.848,1.709-5.23
		C230.724,236.402,233.264,243.729,228.369,246.797z"/>
	<circle fill="#FFD1A1" cx="224.692" cy="53.97" r="4.267"/>
	<circle fill="#FFD1A1" cx="180.482" cy="53.97" r="4.267"/>
	<circle fill="#FFE3C4" cx="202.587" cy="54.693" r="22.105"/>
	<path fill="#9E4A2E" d="M180.483,54.693c0,0,1.2,16.187,0,26.241c-1.2,10.055-0.441,19.54,16.632,20.298
		s26.674-3.467,27.565-47.262c0,0-9.612,11.709-22.381,11.889C188.814,66.049,180.483,54.693,180.483,54.693z"/>
	<path fill="#E8AE72" d="M205.176,65.096c0,1.621-1.313,2.932-2.932,2.932c-1.618,0-2.932-1.313-2.932-2.932
		c0-1.619,2.109-7.605,2.488-11.126C203.222,56.009,205.176,63.478,205.176,65.096z"/>
	<path fill="none" stroke="#9E4A2E" stroke-width="2" stroke-linecap="round" stroke-linejoin="round" stroke-miterlimit="10" d="
		M188.759,52.164c0.808-2.062,3.324-2.062,4.132,0"/>
	<path fill="none" stroke="#9E4A2E" stroke-width="2" stroke-linecap="round" stroke-linejoin="round" stroke-miterlimit="10" d="
		M211.623,52.164c0.81-2.062,3.323-2.062,4.132,0"/>
	<path fill="none" stroke="#FFFFFF" stroke-linecap="round" stroke-linejoin="round" stroke-miterlimit="10" d="M213.688,66.015
		c-0.021,2.033-1.699,3.621-3.727,3.562"/>
</g>
</svg>
